# xmcd
#
# Track frame offsets: 
#        150
#        13072
#        24436
#        33428
#        44063
#        56798
#        66750
#        76689
#        88311
#        100106
#        111262
#        126094
#        135847
#        148278
#        158123
#        169455
#        179853
#        190234
#        202368
#        212900
#        224808
#        234484
#        246124
#        257581
#        265026
#        275006
#        287985
#        299784
#        309541
#        318980
#        326780
#        337366
#
# Disc length: 4647 seconds
#
# Revision: 1
# Processed by: cddbd v1.5.2PL0 Copyright (c) Steve Scherf et al.
# Submitted via: ExactAudioCopy v1.1
#
DISCID=14122520
DTITLE=Various Artist - The Bakersfield Sound (Bear Family) - Disc 6
DYEAR=2019
DGENRE=Country
TTITLE0=Bobby Austin - Apartment #9 (mono)
TTITLE1=Buck Owens - Open Up Your Heart (mono)
TTITLE2=Dick Curless - A Good Job - Huntin' And Fishin' (stereo)
TTITLE3=Gary Paxton - Goin' Thru The Motions (mono)
TTITLE4=Red Simpson - I'm Actin' Like My Old Self Again (stereo)
TTITLE5=Kay Adams - Little Pink Mack (mono)
TTITLE6=Doyle Holly - The Dumb Thing (mono)
TTITLE7=Merle Haggard - Someone Told My Story (stereo)
TTITLE8=Red Simpson - Diesel Smoke, Dangerous Curves (stereo)
TTITLE9=Barbara Mandrell - Queen For A Day (mono)
TTITLE10=Ronnie Sessions - I Guess You're Finally Satisfied (mono)
TTITLE11=Merle Haggard - Mixed Up Mess Of A Heart (stereo)
TTITLE12=Joe and Rose Lee Maphis - A Lifetime Of Love (mono)
TTITLE13=Del and Sue Smart - I'm So Mad At Me (mono)
TTITLE14=Merle Haggard - Drink Up And Be Somebody (stereo)
TTITLE15=The Buckaroos - You'll Never Miss The Water (Til The Well Run
TTITLE15=s Dry) (stereo)
TTITLE16=Bob Morris - The First Thing I Think Of (mono)
TTITLE17=Faye Hardin - Only The Strong Can Survive (mono)
TTITLE18=Merle Haggard - You Don't Have Very Far To Go (stereo)
TTITLE19=Bobby Austin - I'm Not Looking For An Angel (stereo)
TTITLE20=The Buckaroos - Chicken Pickin' (stereo)
TTITLE21=Doyle Holly and The Buckaroos - A Foolish Notion (stereo)
TTITLE22=Merle Haggard - I Made The Prison Band (stereo)
TTITLE23=Oscar Whittington - 50 Year Waltz (mono)
TTITLE24=Del and Sue Smart - Love That Just Won't Stop (stereo)
TTITLE25=The Gosdin Brothers - Hangin' On (stereo)
TTITLE26=Suzi Arden - Who Do You Go To (mono)
TTITLE27=Ronnie Sessions - There Never Was A Fool (mono)
TTITLE28=Merle Haggard - Where Does The Good Times Go (stereo)
TTITLE29=Joe Maphis - Pickin' And Guitin' (mono)
TTITLE30=Rose Lee Maphis - Country Girl Courtship (mono)
TTITLE31=Wayne Wilson - I'd Rather Be Hurt By You (mono)
EXTD=
EXTT0=
EXTT1=
EXTT2=
EXTT3=
EXTT4=
EXTT5=
EXTT6=
EXTT7=
EXTT8=
EXTT9=
EXTT10=
EXTT11=
EXTT12=
EXTT13=
EXTT14=
EXTT15=
EXTT16=
EXTT17=
EXTT18=
EXTT19=
EXTT20=
EXTT21=
EXTT22=
EXTT23=
EXTT24=
EXTT25=
EXTT26=
EXTT27=
EXTT28=
EXTT29=
EXTT30=
EXTT31=
PLAYORDER=
